<svg width="16" height="16" viewBox="0 0 16 16" fill="none" xmlns="http://www.w3.org/2000/svg">
<path d="M10.825 1.717C11.052 1.48998 11.3215 1.30989 11.6181 1.18701C11.9147 1.06413 12.2325 1.00088 12.5536 1.00085C12.8746 1.00083 13.1925 1.06404 13.4891 1.18687C13.7857 1.30971 14.0552 1.48976 14.2823 1.71675C14.5093 1.94374 14.6894 2.21322 14.8122 2.50981C14.9351 2.8064 14.9984 3.12429 14.9984 3.44532C14.9984 3.76636 14.9352 4.08425 14.8124 4.38086C14.6895 4.67747 14.5095 4.94698 14.2825 5.174L13.8315 5.6245L10.3745 2.1675L10.825 1.717ZM9.66751 2.875L2.17851 10.365C1.92636 10.617 1.75238 10.9365 1.67751 11.285L1.01101 14.395C0.99343 14.4767 0.996601 14.5615 1.02023 14.6416C1.04386 14.7217 1.08719 14.7947 1.14626 14.8537C1.20534 14.9128 1.27828 14.9562 1.35841 14.9798C1.43855 15.0034 1.52333 15.0066 1.60501 14.989L4.71501 14.3225C5.06354 14.2476 5.38302 14.0737 5.63501 13.8215L13.125 6.3315L9.66751 2.875Z" fill="#2D69FF"/>
</svg>
